<svg xmlns="http://www.w3.org/2000/svg" xmlns:xlink="http://www.w3.org/1999/xlink" width="18" height="18" viewBox="0 0 18 18">
  <defs>
    <linearGradient id="linear-gradient" x2="0" y2="1" gradientUnits="objectBoundingBox">
      <stop offset="0" stop-color="#6acbe0"/>
      <stop offset="1" stop-color="#6859ea"/>
    </linearGradient>
  </defs>
  <path id="ic_local_phone_24px" d="M6.62,10.79a15.149,15.149,0,0,0,6.59,6.59l2.2-2.2a.994.994,0,0,1,1.02-.24,11.407,11.407,0,0,0,3.57.57,1,1,0,0,1,1,1V20a1,1,0,0,1-1,1A17,17,0,0,1,3,4,1,1,0,0,1,4,3H7.5a1,1,0,0,1,1,1,11.36,11.36,0,0,0,.57,3.57,1,1,0,0,1-.25,1.02Z" transform="translate(-3 -3)" fill="url(#linear-gradient)"/>
</svg>
