<svg xmlns="http://www.w3.org/2000/svg" xmlns:xlink="http://www.w3.org/1999/xlink" width="80" height="80" viewBox="0 0 80 80">
  <defs>
    <clipPath id="clip-path">
      <path id="Path_1" data-name="Path 1" d="M0,0H80V80H0Z" transform="translate(520 1612)" fill="#fff" stroke="#707070" stroke-width="1"/>
    </clipPath>
    <linearGradient id="linear-gradient" x2="0" y2="1" gradientUnits="objectBoundingBox">
      <stop offset="0" stop-color="#6acbe0"/>
      <stop offset="1" stop-color="#6859ea"/>
    </linearGradient>
  </defs>
  <g id="Mask_Group_6" data-name="Mask Group 6" transform="translate(-520 -1612)" clip-path="url(#clip-path)">
    <g id="diamond" transform="translate(520 1612)">
      <g id="Group_79" data-name="Group 79">
        <path id="Path_37" data-name="Path 37" d="M79.972,22.551a3,3,0,0,0-.057-.351,2.685,2.685,0,0,0-.14-.383,2.666,2.666,0,0,0-.1-.286l-.031-.043-.017-.054-11.429-20c-.04-.071-.1-.129-.148-.194a2.235,2.235,0,0,0-.157-.209,2.876,2.876,0,0,0-.752-.654h-.029a2.856,2.856,0,0,0-.917-.3C66.1.06,66.02.046,65.931.04s-.146-.034-.217-.034H14.286c-.071,0-.14.023-.211.029a2.618,2.618,0,0,0-.263.034,2.9,2.9,0,0,0-.914.3h-.029a2.879,2.879,0,0,0-.752.654,2.193,2.193,0,0,0-.157.209c-.046.066-.109.123-.149.194l-11.428,20-.017.043-.031.043a2.583,2.583,0,0,0-.1.286,2.678,2.678,0,0,0-.14.383,2.958,2.958,0,0,0-.046.351A2.648,2.648,0,0,0,0,22.949a2.813,2.813,0,0,0,.043.343,3.184,3.184,0,0,0,.08.4A2.461,2.461,0,0,0,.252,24a2.908,2.908,0,0,0,.123.286c.02.034.049.057.071.091a.8.8,0,0,0,.043.086L37.626,78.734l.014.02a2.8,2.8,0,0,0,.557.591,2.318,2.318,0,0,0,.194.134,2.733,2.733,0,0,0,.54.286c.077.031.152.063.231.089a2.558,2.558,0,0,0,1.669,0c.08-.026.154-.057.231-.089a2.733,2.733,0,0,0,.54-.286q.1-.062.194-.134a2.805,2.805,0,0,0,.557-.591l.014-.02L79.5,24.474a.8.8,0,0,0,.043-.086c.023-.034.051-.057.071-.091a2.891,2.891,0,0,0,.123-.286,2.462,2.462,0,0,0,.129-.311,3.184,3.184,0,0,0,.08-.4A2.8,2.8,0,0,0,80,22.949,2.676,2.676,0,0,0,79.972,22.551ZM60.791,5.72,54.017,17.572,45.552,5.72ZM48.734,20.006H31.266L40,7.78ZM34.449,5.72,25.983,17.572,19.209,5.72ZM14.286,8.62l6.506,11.386H7.783Zm-6,17.1H23.511l9.526,36.191ZM40,65.923,29.428,25.72H50.571Zm6.963-4.011L56.489,25.72H71.714ZM59.209,20.006,65.714,8.62l6.5,11.386Z" fill="url(#linear-gradient)"/>
      </g>
    </g>
  </g>
</svg>
