<svg xmlns="http://www.w3.org/2000/svg" xmlns:xlink="http://www.w3.org/1999/xlink" width="80" height="80" viewBox="0 0 80 80">
  <defs>
    <clipPath id="clip-path">
      <path id="Path_1" data-name="Path 1" d="M0,0H80V80H0Z" transform="translate(520 1612)" fill="#fff" stroke="#707070" stroke-width="1"/>
    </clipPath>
    <linearGradient id="linear-gradient" x2="0" y2="1" gradientUnits="objectBoundingBox">
      <stop offset="0" stop-color="#6acbe0"/>
      <stop offset="1" stop-color="#6859ea"/>
    </linearGradient>
  </defs>
  <g id="Mask_Group_4" data-name="Mask Group 4" transform="translate(-520 -1612)" clip-path="url(#clip-path)">
    <g id="line-chart" transform="translate(520 1612)">
      <g id="Group_74" data-name="Group 74">
        <path id="Path_34" data-name="Path 34" d="M78.509,28.063a3.074,3.074,0,0,0-4.22,1.044c-.025.042-.049.084-.072.126L64.574,46.116l-5.284-9.062L79.5,4.709A3.079,3.079,0,1,0,74.278,1.45l-18.49,29.6L45.739,13.839A3.073,3.073,0,0,0,43.157,12.3a3,3,0,0,0-2.65,1.4l-7,10.759-6.21-10.621A3.074,3.074,0,0,0,24.7,12.3a3.277,3.277,0,0,0-2.656,1.423L.526,47.539a3.074,3.074,0,0,0,.942,4.244h0a3.074,3.074,0,0,0,4.244-.942v0l18.81-29.56,5.226,8.964L.548,75.181a3.074,3.074,0,1,0,5.061,3.49q.047-.068.091-.139L33.225,36.19,43.5,53.8a3.073,3.073,0,0,0,2.61,1.537h.046a3.074,3.074,0,0,0,2.607-1.445l6.843-10.946L61.945,53.8A3.308,3.308,0,0,0,64.6,55.338,3.074,3.074,0,0,0,67.257,53.8l12.3-21.518A3.074,3.074,0,0,0,78.509,28.063ZM46.246,46.319l-9.274-15.9,5.97-9.182,9.164,15.708Z" fill="url(#linear-gradient)"/>
      </g>
    </g>
  </g>
</svg>
